<svg xmlns="http://www.w3.org/2000/svg" version="1.1" xmlns:xlink="http://www.w3.org/1999/xlink" xmlns:svgjs="http://svgjs.dev/svgjs" width="1000" height="1000" viewBox="0 0 1000 1000"><rect width="1000" height="1000" fill="#000000"></rect><g transform="matrix(0.7,0,0,0.7,149.57575757575756,282.1265587044535)"><svg viewBox="0 0 396 247" data-background-color="#e8e9c9" preserveAspectRatio="xMidYMid meet" height="623" width="1000" xmlns="http://www.w3.org/2000/svg" xmlns:xlink="http://www.w3.org/1999/xlink"><defs></defs><g id="tight-bounds" transform="matrix(1,0,0,1,0.2400000000000091,-0.09999999999999432)"><svg viewBox="0 0 395.52 247.2" height="247.2" width="395.52"><g><svg></svg></g><g><svg viewBox="0 0 395.52 247.2" height="247.2" width="395.52"><g><path d="M55.039 247.2l26.403-45.732 2.125 0-25.282 43.791h278.95l-25.282-43.791 2.125 0 26.403 45.732zM197.76 0l26.403 45.732-2.125 0-24.278-42.051-24.278 42.051-2.125 0z" fill="#3e3e3c" data-fill-palette-color="tertiary"></path></g><g transform="matrix(1,0,0,1,19.831437783739375,67.97999999999999)"><svg viewBox="0 0 355.85712443252123 111.24" height="111.24" width="355.85712443252123"><g><svg viewBox="0 0 405.2798056461835 126.68939999999999" height="111.24" width="355.85712443252123"><g><svg viewBox="0 0 405.2798056461835 126.68939999999999" height="126.68939999999999" width="405.2798056461835"><g><svg viewBox="0 0 405.2798056461835 126.68939999999999" height="126.68939999999999" width="405.2798056461835"><g><svg viewBox="0 0 405.2798056461835 126.68939999999999" height="126.68939999999999" width="405.2798056461835"><g><svg><g></g><g></g></svg></g><g><svg><g><svg></svg></g><g></g></svg></g><g id="text-0"><svg viewBox="0 0 405.2798056461835 126.68939999999999" height="126.68939999999999" width="405.2798056461835"><g transform="matrix(1,0,0,1,0,45.594699999999996)"><svg width="136.35000000000002" viewBox="1.25 -35 136.33999633789062 35.5" height="35.5" data-palette-color="#3e3e3c"><path d="M1.25-34.05L1.25-35 16.5-35 16.5-34.05 13.75-34.05 13.75-0.95 16.5-0.95 16.5 0 1.25 0 1.25-0.95 4-0.95 4-34.05 1.25-34.05ZM18.35-22.9L18.35-23.8 30.4-23.8 30.4-19.2Q31.2-21.5 32.85-22.9 34.5-24.3 37.85-24.3L37.85-24.3Q45.6-24.3 45.6-15.95L45.6-15.95 45.6-0.9 48.4-0.9 48.4 0 34.25 0 34.25-0.9 36.3-0.9 36.3-17.15Q36.3-20.15 35.9-21.03 35.5-21.9 34.45-21.9L34.45-21.9Q32.85-21.9 31.62-19.8 30.4-17.7 30.4-14.7L30.4-14.7 30.4-0.9 32.55-0.9 32.55 0 18.35 0 18.35-0.9 21.1-0.9 21.1-22.9 18.35-22.9ZM48.09-22.9L46.05-22.9 46.05-23.8 61-23.8 61-22.9 57.84-22.9 63.84-6.3 69.25-22.9 65.9-22.9 65.9-23.8 72.65-23.8 72.65-22.9 70.45-22.9 63.05 0 57.34 0 48.09-22.9ZM85.04 0.5Q78.59 0.5 75.37-2.83 72.14-6.15 72.14-12.08 72.14-18 75.77-21.15 79.39-24.3 84.99-24.3L84.99-24.3Q96.34-24.3 95.89-12.9L95.89-12.9 81.79-12.9 81.79-10.95Q81.79-6.05 83.04-3.55 84.29-1.05 87.39-1.05L87.39-1.05Q93.19-1.05 94.99-7.25L94.99-7.25 95.89-7.1Q94.94-3.5 92.47-1.5 89.99 0.5 85.04 0.5L85.04 0.5ZM81.84-16.35L81.84-13.9 86.99-13.9 86.99-16.35Q86.99-20.4 86.52-21.88 86.04-23.35 84.62-23.35 83.19-23.35 82.52-21.78 81.84-20.2 81.84-16.35L81.84-16.35ZM98.94 0.5L98.34 0.5 98.34-8.45 98.94-8.45Q100.24-4.1 102.44-2.35 104.64-0.6 107.94-0.6L107.94-0.6Q113.04-0.6 113.04-3.85L113.04-3.85Q113.04-5.25 111.79-5.95L111.79-5.95Q109.84-7.05 106.79-7.65L106.79-7.65Q103.39-8.55 101.09-10.05L101.09-10.05Q98.34-11.85 98.34-15.75 98.34-19.65 100.74-21.98 103.14-24.3 107.14-24.3L107.14-24.3Q109.59-24.3 112.19-23.15L112.19-23.15Q113.14-22.75 113.64-22.75 114.14-22.75 114.49-23.1 114.84-23.45 115.34-24.4L115.34-24.4 115.89-24.4 115.89-16.75 115.29-16.75Q112.74-23.25 107.39-23.25L107.39-23.25Q105.04-23.25 103.89-22.43 102.74-21.6 102.74-20.35L102.74-20.35Q102.74-19.6 103.09-19.18 103.44-18.75 103.64-18.55 103.84-18.35 104.29-18.13 104.74-17.9 105.04-17.78 105.34-17.65 105.97-17.45 106.59-17.25 106.89-17.2L106.89-17.2Q110.29-16.35 111.79-15.73 113.29-15.1 114.64-14.2L114.64-14.2Q117.39-12.3 117.39-8.08 117.39-3.85 114.89-1.68 112.39 0.5 108.04 0.5L108.04 0.5Q104.94 0.5 102.04-0.95L102.04-0.95Q101.44-1.35 101.09-1.35L101.09-1.35Q99.99-1.35 98.94 0.5L98.94 0.5ZM120.89-7.15L120.89-7.15 120.89-22.9 118.14-22.9 118.14-23.8 120.89-23.8 120.89-30.25 130.19-32.55 130.19-23.8 136.69-23.8 136.69-22.9 130.19-22.9 130.19-6.05Q130.19-3.7 130.66-2.6 131.14-1.5 132.64-1.5 134.14-1.5 135.26-3 136.39-4.5 136.74-7.1L136.74-7.1 137.59-7Q137.19-3.55 135.39-1.53 133.59 0.5 129.44 0.5 125.29 0.5 123.09-1.15 120.89-2.8 120.89-7.15Z" opacity="1" transform="matrix(1,0,0,1,0,0)" fill="#3e3e3c" class="undefined-s-0"></path></svg></g><g><svg xmlns="http://www.w3.org/2000/svg" xmlns:xlink="http://www.w3.org/1999/xlink" version="1.1" x="151.30530000000002" y="0" viewBox="0 0 46.999000549316406 53.257301330566406" enable-background="new 0 0 46.998 53.257" xml:space="preserve" width="111.80204462923433" height="126.68939999999999" class="icon-x-0" data-fill-palette-color="accent" id="x-0"><g fill="#5ebc67" data-fill-palette-color="accent"><path d="M30.289 9.347v1.576c0.684-0.027 1.069-0.438 1.069-0.794C31.358 9.724 30.943 9.441 30.289 9.347z" fill="#ffffff" data-fill-palette-color="accent"></path><path d="M27.936 6.76c0 0.306 0.185 0.593 0.849 0.709V6.012C28.387 6.057 27.936 6.403 27.936 6.76z" fill="#ffffff" data-fill-palette-color="accent"></path><path d="M29.549 0C24.86 0 21.06 3.803 21.06 8.489c0 4.688 3.801 8.49 8.489 8.49 4.688 0 8.489-3.803 8.489-8.49C38.038 3.803 34.236 0 29.549 0zM30.271 12.434v0.993h-1.486v-0.993c-1.586-0.183-2.597-1.691-2.597-2.678h1.586c0 0.443 0.341 1.031 1.024 1.173V9.064C28.456 9 28.265 8.946 27.898 8.846c-0.937-0.26-1.583-1.048-1.583-2.053 0-0.997 0.97-2.114 2.469-2.313V3.552h1.486v0.928c1.589 0.203 2.566 1.382 2.566 2.552h-1.554c0-0.513-0.427-0.979-1.013-1.036v1.747c0.432 0.095 0.432 0.084 0.827 0.192 1.477 0.403 1.813 1.37 1.813 2.179C32.911 11.362 31.913 12.217 30.271 12.434z" fill="#ffffff" data-fill-palette-color="accent"></path></g><path d="M32.654 20.249c0 0-10.213-1.145-14.986 1.372 0 0-0.426-2.363-1.036-3.203-0.609-0.84-1.948-2.061-2.08-3.205 0 0 0.021 1.526-0.818 2.519-0.84 0.991-0.611 2.364-0.611 2.364s-2.67-0.609-4.807 1.984c-2.136 2.593-1.373 2.746-2.67 3.052-1.297 0.305-4.272 0-4.272 0S0 27.191 0 29.023c0 1.83 1.068 3.433 1.068 3.433h2.745c0 0 1.068 3.586 6.181 3.586 0 0 0.229 4.653 1.831 7.324 1.603 2.671 2.727 9.155 2.727 9.843 0 0.687 2.386-6.181 2.386-6.181s3.663 2.136 9.995 2.136 9.842-1.602 9.842-1.602l2.289 5.694 2.594-6.305c0 0 5.341-1.603 5.341-12.36C46.998 23.835 39.444 20.706 32.654 20.249zM35.478 25.59c0 0-2.289-0.955-6.485-0.955s-6.746 1.336-6.746 1.336L21.134 23.3c0 0 4.044-1.22 8.316-1.22s7.324 1.22 7.324 1.22L35.478 25.59z" fill="#ffffff" data-fill-palette-color="accent"></path></svg></g><g transform="matrix(1,0,0,1,278.0626446292344,41.9447)"><svg width="127.21716101694915" viewBox="0.25 -38.650001525878906 127.20716094970703 39.150001525878906" height="39.150000000000006" data-palette-color="#3e3e3c"><path d="M26.45 0L9.1 0 9.1-0.95 13.8-0.95 13.8-8.95 0.25-8.95 0.25-9.9 14.35-35 23-35 23-10.15 27.95-10.15 27.95-14.5 28.9-14.5 28.9-5.25 27.95-5.25 27.95-8.95 23-8.95 23-0.95 26.45-0.95 26.45 0ZM13.8-31.2L1.85-10.15 13.8-10.15 13.8-31.2ZM40.2-33.9L40.2-35 58.2-35 58.2-33.9 52.9-33.9 52.9-1.1 54.7-1.1Q58.95-1.1 61.47-3.7 64-6.3 66.59-11.7L66.59-11.7 67.65-11.7 66.7 0 40.2 0 40.2-1.1 43.15-1.1 43.15-33.9 40.2-33.9ZM76.79-27.25Q74.14-27.25 73.02-28.6 71.89-29.95 71.89-31.95 71.89-33.95 73.12-35.25 74.34-36.55 76.84-36.55 79.34-36.55 80.64-35.38 81.94-34.2 81.94-32.02 81.94-29.85 80.69-28.55 79.44-27.25 76.79-27.25ZM69.24-22.9L69.24-23.8 81.49-23.8 81.49-0.9 84.29-0.9 84.29 0 69.44 0 69.44-0.9 72.19-0.9 72.19-22.9 69.24-22.9ZM100.44-37.8L100.44-37.8Q98.54-37.8 97.94-36.38 97.34-34.95 97.34-31.8L97.34-31.8 97.34-23.8 103.94-23.8 103.94-22.9 97.34-22.9 97.34-0.9 103.44-0.9 103.44 0 85.29 0 85.29-0.9 88.04-0.9 88.04-22.9 85.14-22.9 85.14-23.8 88.04-23.8 88.04-24Q88.04-31.2 90.79-34.93 93.54-38.65 99.99-38.65L99.99-38.65Q104.24-38.65 106.09-36.98 107.94-35.3 107.94-33.1 107.94-30.9 106.79-29.8 105.64-28.7 103.74-28.7 101.84-28.7 100.82-29.68 99.79-30.65 99.79-31.93 99.79-33.2 100.09-34.4L100.09-34.4 101.99-34.4Q102.99-37.8 100.44-37.8ZM116.59 0.5Q110.14 0.5 106.91-2.83 103.69-6.15 103.69-12.08 103.69-18 107.31-21.15 110.94-24.3 116.54-24.3L116.54-24.3Q127.89-24.3 127.44-12.9L127.44-12.9 113.34-12.9 113.34-10.95Q113.34-6.05 114.59-3.55 115.84-1.05 118.94-1.05L118.94-1.05Q124.74-1.05 126.54-7.25L126.54-7.25 127.44-7.1Q126.49-3.5 124.01-1.5 121.54 0.5 116.59 0.5L116.59 0.5ZM113.39-16.35L113.39-13.9 118.54-13.9 118.54-16.35Q118.54-20.4 118.06-21.88 117.59-23.35 116.16-23.35 114.74-23.35 114.06-21.78 113.39-20.2 113.39-16.35L113.39-16.35Z" opacity="1" transform="matrix(1,0,0,1,0,0)" fill="#3e3e3c" class="undefined-s-1"></path></svg></g></svg></g></svg></g></svg></g></svg></g></svg></g></svg></g></svg></g></svg><rect width="395.52" height="247.2" fill="none" stroke="none" visibility="hidden"></rect></g></svg></g></svg>